<mxfile host="app.diagrams.net" modified="2023-07-24T00:48:57.406Z" agent="Mozilla/5.0 (Macintosh; Intel Mac OS X 10_15_7) AppleWebKit/537.36 (KHTML, like Gecko) Chrome/114.0.0.0 Safari/537.36" etag="eMI2s5pHnDYSqPdhRn7R" version="21.6.2" type="github">
  <diagram name="Page-1" id="b5b7bab2-c9e2-2cf4-8b2a-24fd1a2a6d21">
    <mxGraphModel dx="954" dy="559" grid="1" gridSize="10" guides="1" tooltips="1" connect="1" arrows="1" fold="1" page="1" pageScale="1" pageWidth="827" pageHeight="1169" background="none" math="0" shadow="0">
      <root>
        <mxCell id="0" />
        <mxCell id="1" parent="0" />
        <mxCell id="dKWWDcmWUPBlKHuUlRmP-2" value="指标监控" style="html=1;dashed=0;whiteSpace=wrap;shape=mxgraph.dfd.start" vertex="1" parent="1">
          <mxGeometry x="60" y="84.5" width="80" height="30" as="geometry" />
        </mxCell>
        <mxCell id="dKWWDcmWUPBlKHuUlRmP-3" value="" style="shape=folder;fontStyle=1;spacingTop=10;tabWidth=90;tabHeight=30;tabPosition=left;html=1;whiteSpace=wrap;" vertex="1" parent="1">
          <mxGeometry x="160" y="280" width="530" height="570" as="geometry" />
        </mxCell>
        <mxCell id="dKWWDcmWUPBlKHuUlRmP-6" value="meter monitor" style="text;align=center;fontStyle=1;verticalAlign=middle;spacingLeft=3;spacingRight=3;strokeColor=none;rotatable=0;points=[[0,0.5],[1,0.5]];portConstraint=eastwest;html=1;" vertex="1" parent="1">
          <mxGeometry x="170" y="280" width="80" height="26" as="geometry" />
        </mxCell>
        <mxCell id="dKWWDcmWUPBlKHuUlRmP-7" value="&lt;p style=&quot;margin:0px;margin-top:4px;text-align:center;&quot;&gt;&lt;i&gt;&lt;b&gt;TimeSeriesData&lt;/b&gt;&lt;/i&gt;&lt;/p&gt;&lt;hr size=&quot;1&quot;&gt;&lt;p style=&quot;margin:0px;margin-left:4px;&quot;&gt;&lt;b&gt;+ getTimestamp(): long&lt;br&gt;+ getData(): Map&amp;lt;String,Object&amp;gt;&lt;/b&gt;&lt;/p&gt;&lt;p style=&quot;margin:0px;margin-left:4px;&quot;&gt;&lt;b&gt;+ getHeader(): Map&amp;lt;String,Object&amp;gt;&lt;/b&gt;&lt;/p&gt;" style="verticalAlign=top;align=left;overflow=fill;fontSize=12;fontFamily=Helvetica;html=1;whiteSpace=wrap;" vertex="1" parent="1">
          <mxGeometry x="290" y="330" width="210" height="90" as="geometry" />
        </mxCell>
        <mxCell id="dKWWDcmWUPBlKHuUlRmP-10" value="&lt;p style=&quot;margin:0px;margin-top:4px;text-align:center;&quot;&gt;&lt;b&gt;SimpleTimeSeriesData&lt;/b&gt;&lt;/p&gt;&lt;hr size=&quot;1&quot;&gt;&lt;p style=&quot;margin:0px;margin-left:4px;&quot;&gt;&lt;b&gt;+ timestamp: long&lt;/b&gt;&lt;/p&gt;&lt;p style=&quot;margin:0px;margin-left:4px;&quot;&gt;&lt;b&gt;+ data: Map&amp;lt;String,Object&amp;gt;&lt;/b&gt;&lt;/p&gt;&lt;p style=&quot;margin:0px;margin-left:4px;&quot;&gt;&lt;b&gt;+ header: Map&amp;lt;String,Object&amp;gt;&lt;/b&gt;&lt;/p&gt;&lt;hr size=&quot;1&quot;&gt;&lt;p style=&quot;margin:0px;margin-left:4px;&quot;&gt;&lt;b&gt;+ Getter,Setter和Constructor&lt;/b&gt;&lt;/p&gt;" style="verticalAlign=top;align=left;overflow=fill;fontSize=12;fontFamily=Helvetica;html=1;whiteSpace=wrap;" vertex="1" parent="1">
          <mxGeometry x="200" y="470" width="170" height="120" as="geometry" />
        </mxCell>
        <mxCell id="dKWWDcmWUPBlKHuUlRmP-12" value="" style="endArrow=block;dashed=1;endFill=0;endSize=12;html=1;rounded=0;entryX=0.5;entryY=1;entryDx=0;entryDy=0;exitX=0.5;exitY=0;exitDx=0;exitDy=0;" edge="1" parent="1" source="dKWWDcmWUPBlKHuUlRmP-10" target="dKWWDcmWUPBlKHuUlRmP-7">
          <mxGeometry width="160" relative="1" as="geometry">
            <mxPoint x="350" y="510" as="sourcePoint" />
            <mxPoint x="510" y="510" as="targetPoint" />
          </mxGeometry>
        </mxCell>
        <mxCell id="dKWWDcmWUPBlKHuUlRmP-15" value="implements" style="edgeLabel;html=1;align=center;verticalAlign=middle;resizable=0;points=[];" vertex="1" connectable="0" parent="dKWWDcmWUPBlKHuUlRmP-12">
          <mxGeometry x="-0.074" relative="1" as="geometry">
            <mxPoint as="offset" />
          </mxGeometry>
        </mxCell>
        <mxCell id="dKWWDcmWUPBlKHuUlRmP-21" value="&lt;p style=&quot;margin:0px;margin-top:4px;text-align:center;&quot;&gt;&lt;b&gt;MeterTimeSeriesData&lt;/b&gt;&lt;/p&gt;&lt;hr size=&quot;1&quot;&gt;&lt;p style=&quot;margin:0px;margin-left:4px;&quot;&gt;&lt;b&gt;+ timestamp: long&lt;/b&gt;&lt;/p&gt;&lt;p style=&quot;margin:0px;margin-left:4px;&quot;&gt;&lt;b&gt;+ data: Map&amp;lt;String,Object&amp;gt;&lt;/b&gt;&lt;/p&gt;&lt;p style=&quot;margin:0px;margin-left:4px;&quot;&gt;&lt;b&gt;+ header: Map&amp;lt;String,Object&amp;gt;&lt;/b&gt;&lt;/p&gt;&lt;hr size=&quot;1&quot;&gt;&lt;p style=&quot;margin:0px;margin-left:4px;&quot;&gt;&lt;/p&gt;&lt;b style=&quot;border-color: var(--border-color);&quot;&gt;&amp;nbsp;+ of(Meter meter):&amp;nbsp;&lt;/b&gt;&lt;b style=&quot;border-color: var(--border-color); text-align: center;&quot;&gt;MeterTimeSeriesData&lt;/b&gt;&lt;p style=&quot;margin:0px;margin-left:4px;&quot;&gt;&lt;b&gt;+ Getter,Setter和Constructor&lt;/b&gt;&lt;/p&gt;" style="verticalAlign=top;align=left;overflow=fill;fontSize=12;fontFamily=Helvetica;html=1;whiteSpace=wrap;" vertex="1" parent="1">
          <mxGeometry x="390" y="470" width="240" height="130" as="geometry" />
        </mxCell>
        <mxCell id="dKWWDcmWUPBlKHuUlRmP-22" value="" style="endArrow=block;dashed=1;endFill=0;endSize=12;html=1;rounded=0;exitX=0.5;exitY=0;exitDx=0;exitDy=0;entryX=0.5;entryY=1;entryDx=0;entryDy=0;" edge="1" parent="1" source="dKWWDcmWUPBlKHuUlRmP-21" target="dKWWDcmWUPBlKHuUlRmP-7">
          <mxGeometry width="160" relative="1" as="geometry">
            <mxPoint x="470" y="480" as="sourcePoint" />
            <mxPoint x="390" y="420" as="targetPoint" />
          </mxGeometry>
        </mxCell>
        <mxCell id="dKWWDcmWUPBlKHuUlRmP-23" value="implements" style="edgeLabel;html=1;align=center;verticalAlign=middle;resizable=0;points=[];" vertex="1" connectable="0" parent="dKWWDcmWUPBlKHuUlRmP-22">
          <mxGeometry x="-0.074" relative="1" as="geometry">
            <mxPoint as="offset" />
          </mxGeometry>
        </mxCell>
        <mxCell id="dKWWDcmWUPBlKHuUlRmP-43" value="" style="edgeStyle=entityRelationEdgeStyle;rounded=0;orthogonalLoop=1;jettySize=auto;html=1;startArrow=none;endArrow=none;segment=10;curved=1;sourcePerimeterSpacing=0;targetPerimeterSpacing=0;" edge="1" parent="1" source="dKWWDcmWUPBlKHuUlRmP-24" target="dKWWDcmWUPBlKHuUlRmP-40">
          <mxGeometry relative="1" as="geometry" />
        </mxCell>
        <mxCell id="dKWWDcmWUPBlKHuUlRmP-44" value="" style="edgeStyle=entityRelationEdgeStyle;rounded=0;orthogonalLoop=1;jettySize=auto;html=1;startArrow=none;endArrow=none;segment=10;curved=1;sourcePerimeterSpacing=0;targetPerimeterSpacing=0;" edge="1" parent="1" source="dKWWDcmWUPBlKHuUlRmP-24" target="dKWWDcmWUPBlKHuUlRmP-40">
          <mxGeometry relative="1" as="geometry" />
        </mxCell>
        <mxCell id="dKWWDcmWUPBlKHuUlRmP-48" value="" style="edgeStyle=entityRelationEdgeStyle;rounded=0;orthogonalLoop=1;jettySize=auto;html=1;startArrow=none;endArrow=none;segment=10;curved=1;sourcePerimeterSpacing=0;targetPerimeterSpacing=0;" edge="1" parent="1" source="dKWWDcmWUPBlKHuUlRmP-24" target="dKWWDcmWUPBlKHuUlRmP-47">
          <mxGeometry relative="1" as="geometry" />
        </mxCell>
        <mxCell id="dKWWDcmWUPBlKHuUlRmP-122" value="" style="edgeStyle=entityRelationEdgeStyle;rounded=0;orthogonalLoop=1;jettySize=auto;html=1;startArrow=none;endArrow=none;segment=10;curved=1;sourcePerimeterSpacing=0;targetPerimeterSpacing=0;" edge="1" parent="1" source="dKWWDcmWUPBlKHuUlRmP-24" target="dKWWDcmWUPBlKHuUlRmP-121">
          <mxGeometry relative="1" as="geometry" />
        </mxCell>
        <mxCell id="dKWWDcmWUPBlKHuUlRmP-24" value="ElasticSearch" style="ellipse;whiteSpace=wrap;html=1;align=center;newEdgeStyle={&quot;edgeStyle&quot;:&quot;entityRelationEdgeStyle&quot;,&quot;startArrow&quot;:&quot;none&quot;,&quot;endArrow&quot;:&quot;none&quot;,&quot;segment&quot;:10,&quot;curved&quot;:1,&quot;sourcePerimeterSpacing&quot;:0,&quot;targetPerimeterSpacing&quot;:0};treeFolding=1;treeMoving=1;" vertex="1" parent="1">
          <mxGeometry x="160" y="1213" width="90" height="37" as="geometry" />
        </mxCell>
        <mxCell id="dKWWDcmWUPBlKHuUlRmP-74" value="" style="edgeStyle=entityRelationEdgeStyle;rounded=0;orthogonalLoop=1;jettySize=auto;html=1;startArrow=none;endArrow=none;segment=10;curved=1;sourcePerimeterSpacing=0;targetPerimeterSpacing=0;" edge="1" parent="1" source="dKWWDcmWUPBlKHuUlRmP-40" target="dKWWDcmWUPBlKHuUlRmP-73">
          <mxGeometry relative="1" as="geometry" />
        </mxCell>
        <mxCell id="dKWWDcmWUPBlKHuUlRmP-82" value="" style="edgeStyle=entityRelationEdgeStyle;rounded=0;orthogonalLoop=1;jettySize=auto;html=1;startArrow=none;endArrow=none;segment=10;curved=1;sourcePerimeterSpacing=0;targetPerimeterSpacing=0;" edge="1" parent="1" source="dKWWDcmWUPBlKHuUlRmP-40" target="dKWWDcmWUPBlKHuUlRmP-81">
          <mxGeometry relative="1" as="geometry" />
        </mxCell>
        <mxCell id="dKWWDcmWUPBlKHuUlRmP-40" value="Geo 地理位置" style="whiteSpace=wrap;html=1;rounded=1;arcSize=50;align=center;verticalAlign=middle;strokeWidth=1;autosize=1;spacing=4;treeFolding=1;treeMoving=1;newEdgeStyle={&quot;edgeStyle&quot;:&quot;entityRelationEdgeStyle&quot;,&quot;startArrow&quot;:&quot;none&quot;,&quot;endArrow&quot;:&quot;none&quot;,&quot;segment&quot;:10,&quot;curved&quot;:1,&quot;sourcePerimeterSpacing&quot;:0,&quot;targetPerimeterSpacing&quot;:0};" vertex="1" parent="1">
          <mxGeometry x="320" y="1218" width="120" height="30" as="geometry" />
        </mxCell>
        <mxCell id="dKWWDcmWUPBlKHuUlRmP-107" value="" style="edgeStyle=entityRelationEdgeStyle;rounded=0;orthogonalLoop=1;jettySize=auto;html=1;startArrow=none;endArrow=none;segment=10;curved=1;sourcePerimeterSpacing=0;targetPerimeterSpacing=0;" edge="1" parent="1" source="dKWWDcmWUPBlKHuUlRmP-45" target="dKWWDcmWUPBlKHuUlRmP-106">
          <mxGeometry relative="1" as="geometry" />
        </mxCell>
        <mxCell id="dKWWDcmWUPBlKHuUlRmP-109" value="" style="edgeStyle=entityRelationEdgeStyle;rounded=0;orthogonalLoop=1;jettySize=auto;html=1;startArrow=none;endArrow=none;segment=10;curved=1;sourcePerimeterSpacing=0;targetPerimeterSpacing=0;" edge="1" parent="1" source="dKWWDcmWUPBlKHuUlRmP-45" target="dKWWDcmWUPBlKHuUlRmP-108">
          <mxGeometry relative="1" as="geometry" />
        </mxCell>
        <mxCell id="dKWWDcmWUPBlKHuUlRmP-114" value="" style="edgeStyle=entityRelationEdgeStyle;rounded=0;orthogonalLoop=1;jettySize=auto;html=1;startArrow=none;endArrow=none;segment=10;curved=1;sourcePerimeterSpacing=0;targetPerimeterSpacing=0;exitX=1;exitY=0.5;exitDx=0;exitDy=0;" edge="1" parent="1" source="dKWWDcmWUPBlKHuUlRmP-24" target="dKWWDcmWUPBlKHuUlRmP-113">
          <mxGeometry relative="1" as="geometry">
            <mxPoint x="250" y="1260" as="sourcePoint" />
            <Array as="points">
              <mxPoint x="240" y="1250" />
              <mxPoint x="250" y="1250" />
              <mxPoint x="400" y="1390" />
              <mxPoint x="250" y="1240" />
            </Array>
          </mxGeometry>
        </mxCell>
        <mxCell id="dKWWDcmWUPBlKHuUlRmP-45" value="指标监控" style="whiteSpace=wrap;html=1;rounded=1;arcSize=50;align=center;verticalAlign=middle;strokeWidth=1;autosize=1;spacing=4;treeFolding=1;treeMoving=1;newEdgeStyle={&quot;edgeStyle&quot;:&quot;entityRelationEdgeStyle&quot;,&quot;startArrow&quot;:&quot;none&quot;,&quot;endArrow&quot;:&quot;none&quot;,&quot;segment&quot;:10,&quot;curved&quot;:1,&quot;sourcePerimeterSpacing&quot;:0,&quot;targetPerimeterSpacing&quot;:0};" vertex="1" parent="1">
          <mxGeometry x="335" y="1340" width="90" height="30" as="geometry" />
        </mxCell>
        <mxCell id="dKWWDcmWUPBlKHuUlRmP-46" value="" style="edgeStyle=entityRelationEdgeStyle;startArrow=none;endArrow=none;segment=10;curved=1;sourcePerimeterSpacing=0;targetPerimeterSpacing=0;rounded=0;exitX=1;exitY=0.5;exitDx=0;exitDy=0;" edge="1" target="dKWWDcmWUPBlKHuUlRmP-45" parent="1" source="dKWWDcmWUPBlKHuUlRmP-24">
          <mxGeometry relative="1" as="geometry">
            <mxPoint x="370" y="1282" as="sourcePoint" />
          </mxGeometry>
        </mxCell>
        <mxCell id="dKWWDcmWUPBlKHuUlRmP-51" value="" style="edgeStyle=entityRelationEdgeStyle;rounded=0;orthogonalLoop=1;jettySize=auto;html=1;startArrow=none;endArrow=none;segment=10;curved=1;sourcePerimeterSpacing=0;targetPerimeterSpacing=0;" edge="1" parent="1" source="dKWWDcmWUPBlKHuUlRmP-47" target="dKWWDcmWUPBlKHuUlRmP-50">
          <mxGeometry relative="1" as="geometry" />
        </mxCell>
        <mxCell id="dKWWDcmWUPBlKHuUlRmP-55" value="" style="edgeStyle=entityRelationEdgeStyle;rounded=0;orthogonalLoop=1;jettySize=auto;html=1;startArrow=none;endArrow=none;segment=10;curved=1;sourcePerimeterSpacing=0;targetPerimeterSpacing=0;" edge="1" parent="1" source="dKWWDcmWUPBlKHuUlRmP-47" target="dKWWDcmWUPBlKHuUlRmP-50">
          <mxGeometry relative="1" as="geometry" />
        </mxCell>
        <mxCell id="dKWWDcmWUPBlKHuUlRmP-56" value="" style="edgeStyle=entityRelationEdgeStyle;rounded=0;orthogonalLoop=1;jettySize=auto;html=1;startArrow=none;endArrow=none;segment=10;curved=1;sourcePerimeterSpacing=0;targetPerimeterSpacing=0;" edge="1" parent="1" source="dKWWDcmWUPBlKHuUlRmP-47" target="dKWWDcmWUPBlKHuUlRmP-50">
          <mxGeometry relative="1" as="geometry" />
        </mxCell>
        <mxCell id="dKWWDcmWUPBlKHuUlRmP-47" value="Alias别名应用" style="ellipse;whiteSpace=wrap;html=1;align=center;newEdgeStyle={&quot;edgeStyle&quot;:&quot;entityRelationEdgeStyle&quot;,&quot;startArrow&quot;:&quot;none&quot;,&quot;endArrow&quot;:&quot;none&quot;,&quot;segment&quot;:10,&quot;curved&quot;:1,&quot;sourcePerimeterSpacing&quot;:0,&quot;targetPerimeterSpacing&quot;:0};treeFolding=1;treeMoving=1;" vertex="1" parent="1">
          <mxGeometry x="335" y="1020" width="100" height="40" as="geometry" />
        </mxCell>
        <mxCell id="dKWWDcmWUPBlKHuUlRmP-54" value="" style="edgeStyle=entityRelationEdgeStyle;rounded=0;orthogonalLoop=1;jettySize=auto;html=1;startArrow=none;endArrow=none;segment=10;curved=1;sourcePerimeterSpacing=0;targetPerimeterSpacing=0;" edge="1" parent="1" source="dKWWDcmWUPBlKHuUlRmP-50" target="dKWWDcmWUPBlKHuUlRmP-53">
          <mxGeometry relative="1" as="geometry" />
        </mxCell>
        <mxCell id="dKWWDcmWUPBlKHuUlRmP-50" value="别名字段" style="ellipse;whiteSpace=wrap;html=1;align=center;newEdgeStyle={&quot;edgeStyle&quot;:&quot;entityRelationEdgeStyle&quot;,&quot;startArrow&quot;:&quot;none&quot;,&quot;endArrow&quot;:&quot;none&quot;,&quot;segment&quot;:10,&quot;curved&quot;:1,&quot;sourcePerimeterSpacing&quot;:0,&quot;targetPerimeterSpacing&quot;:0};treeFolding=1;treeMoving=1;" vertex="1" parent="1">
          <mxGeometry x="475" y="971" width="100" height="40" as="geometry" />
        </mxCell>
        <mxCell id="dKWWDcmWUPBlKHuUlRmP-53" value="1. 使用于不同索引不同字段相同别名，可用于统计，搜索" style="whiteSpace=wrap;html=1;" vertex="1" parent="1">
          <mxGeometry x="640" y="920" width="120" height="60" as="geometry" />
        </mxCell>
        <mxCell id="dKWWDcmWUPBlKHuUlRmP-67" value="" style="edgeStyle=entityRelationEdgeStyle;rounded=0;orthogonalLoop=1;jettySize=auto;html=1;startArrow=none;endArrow=none;segment=10;curved=1;sourcePerimeterSpacing=0;targetPerimeterSpacing=0;" edge="1" parent="1" source="dKWWDcmWUPBlKHuUlRmP-64" target="dKWWDcmWUPBlKHuUlRmP-66">
          <mxGeometry relative="1" as="geometry" />
        </mxCell>
        <mxCell id="dKWWDcmWUPBlKHuUlRmP-68" value="" style="edgeStyle=entityRelationEdgeStyle;rounded=0;orthogonalLoop=1;jettySize=auto;html=1;startArrow=none;endArrow=none;segment=10;curved=1;sourcePerimeterSpacing=0;targetPerimeterSpacing=0;" edge="1" parent="1" source="dKWWDcmWUPBlKHuUlRmP-64" target="dKWWDcmWUPBlKHuUlRmP-66">
          <mxGeometry relative="1" as="geometry" />
        </mxCell>
        <mxCell id="dKWWDcmWUPBlKHuUlRmP-69" value="" style="edgeStyle=entityRelationEdgeStyle;rounded=0;orthogonalLoop=1;jettySize=auto;html=1;startArrow=none;endArrow=none;segment=10;curved=1;sourcePerimeterSpacing=0;targetPerimeterSpacing=0;" edge="1" parent="1" source="dKWWDcmWUPBlKHuUlRmP-64" target="dKWWDcmWUPBlKHuUlRmP-66">
          <mxGeometry relative="1" as="geometry" />
        </mxCell>
        <mxCell id="dKWWDcmWUPBlKHuUlRmP-64" value="索引别名" style="whiteSpace=wrap;html=1;rounded=1;arcSize=50;align=center;verticalAlign=middle;strokeWidth=1;autosize=1;spacing=4;treeFolding=1;treeMoving=1;newEdgeStyle={&quot;edgeStyle&quot;:&quot;entityRelationEdgeStyle&quot;,&quot;startArrow&quot;:&quot;none&quot;,&quot;endArrow&quot;:&quot;none&quot;,&quot;segment&quot;:10,&quot;curved&quot;:1,&quot;sourcePerimeterSpacing&quot;:0,&quot;targetPerimeterSpacing&quot;:0};" vertex="1" parent="1">
          <mxGeometry x="470" y="1041" width="90" height="30" as="geometry" />
        </mxCell>
        <mxCell id="dKWWDcmWUPBlKHuUlRmP-65" value="" style="edgeStyle=entityRelationEdgeStyle;startArrow=none;endArrow=none;segment=10;curved=1;sourcePerimeterSpacing=0;targetPerimeterSpacing=0;rounded=0;exitX=1;exitY=0.5;exitDx=0;exitDy=0;" edge="1" target="dKWWDcmWUPBlKHuUlRmP-64" parent="1" source="dKWWDcmWUPBlKHuUlRmP-47">
          <mxGeometry relative="1" as="geometry">
            <mxPoint x="440" y="1143" as="sourcePoint" />
          </mxGeometry>
        </mxCell>
        <mxCell id="dKWWDcmWUPBlKHuUlRmP-71" value="" style="edgeStyle=entityRelationEdgeStyle;rounded=0;orthogonalLoop=1;jettySize=auto;html=1;startArrow=none;endArrow=none;segment=10;curved=1;sourcePerimeterSpacing=0;targetPerimeterSpacing=0;exitX=1;exitY=0.5;exitDx=0;exitDy=0;" edge="1" parent="1" source="dKWWDcmWUPBlKHuUlRmP-64" target="dKWWDcmWUPBlKHuUlRmP-70">
          <mxGeometry relative="1" as="geometry">
            <mxPoint x="650" y="1161" as="sourcePoint" />
            <Array as="points">
              <mxPoint x="670" y="1121" />
              <mxPoint x="570" y="1121" />
            </Array>
          </mxGeometry>
        </mxCell>
        <mxCell id="dKWWDcmWUPBlKHuUlRmP-105" value="" style="edgeStyle=entityRelationEdgeStyle;rounded=0;orthogonalLoop=1;jettySize=auto;html=1;startArrow=none;endArrow=none;segment=10;curved=1;sourcePerimeterSpacing=0;targetPerimeterSpacing=0;" edge="1" parent="1" source="dKWWDcmWUPBlKHuUlRmP-66" target="dKWWDcmWUPBlKHuUlRmP-104">
          <mxGeometry relative="1" as="geometry" />
        </mxCell>
        <mxCell id="dKWWDcmWUPBlKHuUlRmP-66" value="用于索引&lt;br&gt;数据源切换" style="whiteSpace=wrap;html=1;rounded=1;arcSize=50;align=center;verticalAlign=middle;strokeWidth=1;autosize=1;spacing=4;treeFolding=1;treeMoving=1;newEdgeStyle={&quot;edgeStyle&quot;:&quot;entityRelationEdgeStyle&quot;,&quot;startArrow&quot;:&quot;none&quot;,&quot;endArrow&quot;:&quot;none&quot;,&quot;segment&quot;:10,&quot;curved&quot;:1,&quot;sourcePerimeterSpacing&quot;:0,&quot;targetPerimeterSpacing&quot;:0};" vertex="1" parent="1">
          <mxGeometry x="670" y="990" width="85" height="40" as="geometry" />
        </mxCell>
        <mxCell id="dKWWDcmWUPBlKHuUlRmP-70" value="用于数据归类：&lt;br&gt;比如时序数据按月分索引，&lt;br&gt;将所有的索引指定相同的别名" style="whiteSpace=wrap;html=1;rounded=1;arcSize=50;align=center;verticalAlign=middle;strokeWidth=1;autosize=1;spacing=4;treeFolding=1;treeMoving=1;newEdgeStyle={&quot;edgeStyle&quot;:&quot;entityRelationEdgeStyle&quot;,&quot;startArrow&quot;:&quot;none&quot;,&quot;endArrow&quot;:&quot;none&quot;,&quot;segment&quot;:10,&quot;curved&quot;:1,&quot;sourcePerimeterSpacing&quot;:0,&quot;targetPerimeterSpacing&quot;:0};" vertex="1" parent="1">
          <mxGeometry x="657" y="1070" width="170" height="61" as="geometry" />
        </mxCell>
        <mxCell id="dKWWDcmWUPBlKHuUlRmP-73" value="geo_point&amp;nbsp;地理坐标" style="whiteSpace=wrap;html=1;rounded=1;arcSize=50;align=center;verticalAlign=middle;strokeWidth=1;autosize=1;spacing=4;treeFolding=1;treeMoving=1;newEdgeStyle={&quot;edgeStyle&quot;:&quot;entityRelationEdgeStyle&quot;,&quot;startArrow&quot;:&quot;none&quot;,&quot;endArrow&quot;:&quot;none&quot;,&quot;segment&quot;:10,&quot;curved&quot;:1,&quot;sourcePerimeterSpacing&quot;:0,&quot;targetPerimeterSpacing&quot;:0};" vertex="1" parent="1">
          <mxGeometry x="490" y="1178" width="150" height="30" as="geometry" />
        </mxCell>
        <mxCell id="dKWWDcmWUPBlKHuUlRmP-81" value="geo_shape地理图形" style="whiteSpace=wrap;html=1;rounded=1;arcSize=50;align=center;verticalAlign=middle;strokeWidth=1;autosize=1;spacing=4;treeFolding=1;treeMoving=1;newEdgeStyle={&quot;edgeStyle&quot;:&quot;entityRelationEdgeStyle&quot;,&quot;startArrow&quot;:&quot;none&quot;,&quot;endArrow&quot;:&quot;none&quot;,&quot;segment&quot;:10,&quot;curved&quot;:1,&quot;sourcePerimeterSpacing&quot;:0,&quot;targetPerimeterSpacing&quot;:0};" vertex="1" parent="1">
          <mxGeometry x="490" y="1240" width="150" height="30" as="geometry" />
        </mxCell>
        <mxCell id="dKWWDcmWUPBlKHuUlRmP-104" value="设备影子功能:后续需要&lt;br&gt;增加设备分类字段，&lt;br&gt;此时需要数据源切换" style="whiteSpace=wrap;html=1;rounded=1;arcSize=50;align=center;verticalAlign=middle;strokeWidth=1;autosize=1;spacing=4;treeFolding=1;treeMoving=1;newEdgeStyle={&quot;edgeStyle&quot;:&quot;entityRelationEdgeStyle&quot;,&quot;startArrow&quot;:&quot;none&quot;,&quot;endArrow&quot;:&quot;none&quot;,&quot;segment&quot;:10,&quot;curved&quot;:1,&quot;sourcePerimeterSpacing&quot;:0,&quot;targetPerimeterSpacing&quot;:0};" vertex="1" parent="1">
          <mxGeometry x="840" y="970" width="150" height="50" as="geometry" />
        </mxCell>
        <mxCell id="dKWWDcmWUPBlKHuUlRmP-106" value="时间聚合" style="whiteSpace=wrap;html=1;rounded=1;arcSize=50;align=center;verticalAlign=middle;strokeWidth=1;autosize=1;spacing=4;treeFolding=1;treeMoving=1;newEdgeStyle={&quot;edgeStyle&quot;:&quot;entityRelationEdgeStyle&quot;,&quot;startArrow&quot;:&quot;none&quot;,&quot;endArrow&quot;:&quot;none&quot;,&quot;segment&quot;:10,&quot;curved&quot;:1,&quot;sourcePerimeterSpacing&quot;:0,&quot;targetPerimeterSpacing&quot;:0};" vertex="1" parent="1">
          <mxGeometry x="485" y="1310" width="90" height="30" as="geometry" />
        </mxCell>
        <mxCell id="dKWWDcmWUPBlKHuUlRmP-108" value="分组聚合" style="whiteSpace=wrap;html=1;rounded=1;arcSize=50;align=center;verticalAlign=middle;strokeWidth=1;autosize=1;spacing=4;treeFolding=1;treeMoving=1;newEdgeStyle={&quot;edgeStyle&quot;:&quot;entityRelationEdgeStyle&quot;,&quot;startArrow&quot;:&quot;none&quot;,&quot;endArrow&quot;:&quot;none&quot;,&quot;segment&quot;:10,&quot;curved&quot;:1,&quot;sourcePerimeterSpacing&quot;:0,&quot;targetPerimeterSpacing&quot;:0};" vertex="1" parent="1">
          <mxGeometry x="485" y="1355" width="90" height="30" as="geometry" />
        </mxCell>
        <mxCell id="dKWWDcmWUPBlKHuUlRmP-116" value="" style="edgeStyle=entityRelationEdgeStyle;rounded=0;orthogonalLoop=1;jettySize=auto;html=1;startArrow=none;endArrow=none;segment=10;curved=1;sourcePerimeterSpacing=0;targetPerimeterSpacing=0;" edge="1" parent="1" source="dKWWDcmWUPBlKHuUlRmP-113" target="dKWWDcmWUPBlKHuUlRmP-115">
          <mxGeometry relative="1" as="geometry" />
        </mxCell>
        <mxCell id="dKWWDcmWUPBlKHuUlRmP-118" value="" style="edgeStyle=entityRelationEdgeStyle;rounded=0;orthogonalLoop=1;jettySize=auto;html=1;startArrow=none;endArrow=none;segment=10;curved=1;sourcePerimeterSpacing=0;targetPerimeterSpacing=0;" edge="1" parent="1" source="dKWWDcmWUPBlKHuUlRmP-113" target="dKWWDcmWUPBlKHuUlRmP-117">
          <mxGeometry relative="1" as="geometry" />
        </mxCell>
        <mxCell id="dKWWDcmWUPBlKHuUlRmP-120" value="" style="edgeStyle=entityRelationEdgeStyle;rounded=0;orthogonalLoop=1;jettySize=auto;html=1;startArrow=none;endArrow=none;segment=10;curved=1;sourcePerimeterSpacing=0;targetPerimeterSpacing=0;exitX=1;exitY=0.25;exitDx=0;exitDy=0;" edge="1" parent="1" source="dKWWDcmWUPBlKHuUlRmP-115" target="dKWWDcmWUPBlKHuUlRmP-119">
          <mxGeometry relative="1" as="geometry" />
        </mxCell>
        <mxCell id="dKWWDcmWUPBlKHuUlRmP-113" value="时序数据存储" style="whiteSpace=wrap;html=1;rounded=1;arcSize=50;align=center;verticalAlign=middle;strokeWidth=1;autosize=1;spacing=4;treeFolding=1;treeMoving=1;newEdgeStyle={&quot;edgeStyle&quot;:&quot;entityRelationEdgeStyle&quot;,&quot;startArrow&quot;:&quot;none&quot;,&quot;endArrow&quot;:&quot;none&quot;,&quot;segment&quot;:10,&quot;curved&quot;:1,&quot;sourcePerimeterSpacing&quot;:0,&quot;targetPerimeterSpacing&quot;:0};" vertex="1" parent="1">
          <mxGeometry x="335" y="1440" width="120" height="30" as="geometry" />
        </mxCell>
        <mxCell id="dKWWDcmWUPBlKHuUlRmP-115" value="按月分索引" style="whiteSpace=wrap;html=1;rounded=1;arcSize=50;align=center;verticalAlign=middle;strokeWidth=1;autosize=1;spacing=4;treeFolding=1;treeMoving=1;newEdgeStyle={&quot;edgeStyle&quot;:&quot;entityRelationEdgeStyle&quot;,&quot;startArrow&quot;:&quot;none&quot;,&quot;endArrow&quot;:&quot;none&quot;,&quot;segment&quot;:10,&quot;curved&quot;:1,&quot;sourcePerimeterSpacing&quot;:0,&quot;targetPerimeterSpacing&quot;:0};" vertex="1" parent="1">
          <mxGeometry x="530" y="1440" width="100" height="30" as="geometry" />
        </mxCell>
        <mxCell id="dKWWDcmWUPBlKHuUlRmP-117" value="索引具有相同别名" style="whiteSpace=wrap;html=1;rounded=1;arcSize=50;align=center;verticalAlign=middle;strokeWidth=1;autosize=1;spacing=4;treeFolding=1;treeMoving=1;newEdgeStyle={&quot;edgeStyle&quot;:&quot;entityRelationEdgeStyle&quot;,&quot;startArrow&quot;:&quot;none&quot;,&quot;endArrow&quot;:&quot;none&quot;,&quot;segment&quot;:10,&quot;curved&quot;:1,&quot;sourcePerimeterSpacing&quot;:0,&quot;targetPerimeterSpacing&quot;:0};" vertex="1" parent="1">
          <mxGeometry x="510" y="1530" width="140" height="30" as="geometry" />
        </mxCell>
        <mxCell id="dKWWDcmWUPBlKHuUlRmP-119" value="索引存储结构" style="whiteSpace=wrap;html=1;rounded=1;arcSize=50;align=center;verticalAlign=middle;strokeWidth=1;autosize=1;spacing=4;treeFolding=1;treeMoving=1;newEdgeStyle={&quot;edgeStyle&quot;:&quot;entityRelationEdgeStyle&quot;,&quot;startArrow&quot;:&quot;none&quot;,&quot;endArrow&quot;:&quot;none&quot;,&quot;segment&quot;:10,&quot;curved&quot;:1,&quot;sourcePerimeterSpacing&quot;:0,&quot;targetPerimeterSpacing&quot;:0};" vertex="1" parent="1">
          <mxGeometry x="707" y="1380" width="120" height="30" as="geometry" />
        </mxCell>
        <mxCell id="dKWWDcmWUPBlKHuUlRmP-124" value="" style="edgeStyle=entityRelationEdgeStyle;rounded=0;orthogonalLoop=1;jettySize=auto;html=1;startArrow=none;endArrow=none;segment=10;curved=1;sourcePerimeterSpacing=0;targetPerimeterSpacing=0;" edge="1" parent="1" source="dKWWDcmWUPBlKHuUlRmP-121" target="dKWWDcmWUPBlKHuUlRmP-123">
          <mxGeometry relative="1" as="geometry" />
        </mxCell>
        <mxCell id="dKWWDcmWUPBlKHuUlRmP-129" value="" style="edgeStyle=entityRelationEdgeStyle;rounded=0;orthogonalLoop=1;jettySize=auto;html=1;startArrow=none;endArrow=none;segment=10;curved=1;sourcePerimeterSpacing=0;targetPerimeterSpacing=0;" edge="1" parent="1" source="dKWWDcmWUPBlKHuUlRmP-121" target="dKWWDcmWUPBlKHuUlRmP-128">
          <mxGeometry relative="1" as="geometry" />
        </mxCell>
        <mxCell id="dKWWDcmWUPBlKHuUlRmP-121" value="日志搜索" style="ellipse;whiteSpace=wrap;html=1;align=center;newEdgeStyle={&quot;edgeStyle&quot;:&quot;entityRelationEdgeStyle&quot;,&quot;startArrow&quot;:&quot;none&quot;,&quot;endArrow&quot;:&quot;none&quot;,&quot;segment&quot;:10,&quot;curved&quot;:1,&quot;sourcePerimeterSpacing&quot;:0,&quot;targetPerimeterSpacing&quot;:0};treeFolding=1;treeMoving=1;" vertex="1" parent="1">
          <mxGeometry x="325" y="1600" width="100" height="40" as="geometry" />
        </mxCell>
        <mxCell id="dKWWDcmWUPBlKHuUlRmP-123" value="接口访问日志服务" style="ellipse;whiteSpace=wrap;html=1;align=center;newEdgeStyle={&quot;edgeStyle&quot;:&quot;entityRelationEdgeStyle&quot;,&quot;startArrow&quot;:&quot;none&quot;,&quot;endArrow&quot;:&quot;none&quot;,&quot;segment&quot;:10,&quot;curved&quot;:1,&quot;sourcePerimeterSpacing&quot;:0,&quot;targetPerimeterSpacing&quot;:0};treeFolding=1;treeMoving=1;" vertex="1" parent="1">
          <mxGeometry x="500" y="1580" width="100" height="40" as="geometry" />
        </mxCell>
        <mxCell id="dKWWDcmWUPBlKHuUlRmP-128" value="系统日志服务" style="ellipse;whiteSpace=wrap;html=1;align=center;newEdgeStyle={&quot;edgeStyle&quot;:&quot;entityRelationEdgeStyle&quot;,&quot;startArrow&quot;:&quot;none&quot;,&quot;endArrow&quot;:&quot;none&quot;,&quot;segment&quot;:10,&quot;curved&quot;:1,&quot;sourcePerimeterSpacing&quot;:0,&quot;targetPerimeterSpacing&quot;:0};treeFolding=1;treeMoving=1;" vertex="1" parent="1">
          <mxGeometry x="500" y="1670" width="100" height="40" as="geometry" />
        </mxCell>
        <mxCell id="dKWWDcmWUPBlKHuUlRmP-132" value="" style="edgeStyle=entityRelationEdgeStyle;rounded=0;orthogonalLoop=1;jettySize=auto;html=1;startArrow=none;endArrow=none;segment=10;curved=1;sourcePerimeterSpacing=0;targetPerimeterSpacing=0;" edge="1" parent="1" source="dKWWDcmWUPBlKHuUlRmP-130" target="dKWWDcmWUPBlKHuUlRmP-131">
          <mxGeometry relative="1" as="geometry" />
        </mxCell>
        <mxCell id="dKWWDcmWUPBlKHuUlRmP-136" value="" style="edgeStyle=entityRelationEdgeStyle;rounded=0;orthogonalLoop=1;jettySize=auto;html=1;startArrow=none;endArrow=none;segment=10;curved=1;sourcePerimeterSpacing=0;targetPerimeterSpacing=0;" edge="1" parent="1" source="dKWWDcmWUPBlKHuUlRmP-130" target="dKWWDcmWUPBlKHuUlRmP-135">
          <mxGeometry relative="1" as="geometry" />
        </mxCell>
        <mxCell id="dKWWDcmWUPBlKHuUlRmP-143" value="" style="edgeStyle=entityRelationEdgeStyle;rounded=0;orthogonalLoop=1;jettySize=auto;html=1;startArrow=none;endArrow=none;segment=10;curved=1;sourcePerimeterSpacing=0;targetPerimeterSpacing=0;" edge="1" parent="1" source="dKWWDcmWUPBlKHuUlRmP-130" target="dKWWDcmWUPBlKHuUlRmP-142">
          <mxGeometry relative="1" as="geometry" />
        </mxCell>
        <mxCell id="dKWWDcmWUPBlKHuUlRmP-170" value="" style="edgeStyle=entityRelationEdgeStyle;rounded=0;orthogonalLoop=1;jettySize=auto;html=1;startArrow=none;endArrow=none;segment=10;curved=1;sourcePerimeterSpacing=0;targetPerimeterSpacing=0;" edge="1" parent="1" source="dKWWDcmWUPBlKHuUlRmP-130" target="dKWWDcmWUPBlKHuUlRmP-169">
          <mxGeometry relative="1" as="geometry" />
        </mxCell>
        <mxCell id="dKWWDcmWUPBlKHuUlRmP-183" value="" style="edgeStyle=entityRelationEdgeStyle;rounded=0;orthogonalLoop=1;jettySize=auto;html=1;startArrow=none;endArrow=none;segment=10;curved=1;sourcePerimeterSpacing=0;targetPerimeterSpacing=0;" edge="1" parent="1" source="dKWWDcmWUPBlKHuUlRmP-130" target="dKWWDcmWUPBlKHuUlRmP-182">
          <mxGeometry relative="1" as="geometry" />
        </mxCell>
        <mxCell id="dKWWDcmWUPBlKHuUlRmP-130" value="deviceAlarm" style="whiteSpace=wrap;html=1;rounded=1;arcSize=50;align=center;verticalAlign=middle;strokeWidth=1;autosize=1;spacing=4;treeFolding=1;treeMoving=1;newEdgeStyle={&quot;edgeStyle&quot;:&quot;entityRelationEdgeStyle&quot;,&quot;startArrow&quot;:&quot;none&quot;,&quot;endArrow&quot;:&quot;none&quot;,&quot;segment&quot;:10,&quot;curved&quot;:1,&quot;sourcePerimeterSpacing&quot;:0,&quot;targetPerimeterSpacing&quot;:0};" vertex="1" parent="1">
          <mxGeometry x="230" y="2070" width="110" height="30" as="geometry" />
        </mxCell>
        <mxCell id="dKWWDcmWUPBlKHuUlRmP-134" value="" style="edgeStyle=entityRelationEdgeStyle;rounded=0;orthogonalLoop=1;jettySize=auto;html=1;startArrow=none;endArrow=none;segment=10;curved=1;sourcePerimeterSpacing=0;targetPerimeterSpacing=0;" edge="1" parent="1" source="dKWWDcmWUPBlKHuUlRmP-131" target="dKWWDcmWUPBlKHuUlRmP-133">
          <mxGeometry relative="1" as="geometry" />
        </mxCell>
        <mxCell id="dKWWDcmWUPBlKHuUlRmP-211" value="" style="edgeStyle=entityRelationEdgeStyle;rounded=0;orthogonalLoop=1;jettySize=auto;html=1;startArrow=none;endArrow=none;segment=10;curved=1;sourcePerimeterSpacing=0;targetPerimeterSpacing=0;" edge="1" parent="1" source="dKWWDcmWUPBlKHuUlRmP-131" target="dKWWDcmWUPBlKHuUlRmP-210">
          <mxGeometry relative="1" as="geometry" />
        </mxCell>
        <mxCell id="dKWWDcmWUPBlKHuUlRmP-213" value="" style="edgeStyle=entityRelationEdgeStyle;rounded=0;orthogonalLoop=1;jettySize=auto;html=1;startArrow=none;endArrow=none;segment=10;curved=1;sourcePerimeterSpacing=0;targetPerimeterSpacing=0;" edge="1" parent="1" source="dKWWDcmWUPBlKHuUlRmP-131" target="dKWWDcmWUPBlKHuUlRmP-212">
          <mxGeometry relative="1" as="geometry" />
        </mxCell>
        <mxCell id="dKWWDcmWUPBlKHuUlRmP-131" value="告警模型" style="whiteSpace=wrap;html=1;rounded=1;arcSize=50;align=center;verticalAlign=middle;strokeWidth=1;autosize=1;spacing=4;treeFolding=1;treeMoving=1;newEdgeStyle={&quot;edgeStyle&quot;:&quot;entityRelationEdgeStyle&quot;,&quot;startArrow&quot;:&quot;none&quot;,&quot;endArrow&quot;:&quot;none&quot;,&quot;segment&quot;:10,&quot;curved&quot;:1,&quot;sourcePerimeterSpacing&quot;:0,&quot;targetPerimeterSpacing&quot;:0};" vertex="1" parent="1">
          <mxGeometry x="425" y="1784" width="90" height="30" as="geometry" />
        </mxCell>
        <mxCell id="dKWWDcmWUPBlKHuUlRmP-133" value="id，name，level,out_template,&lt;br&gt;recover_template,target,target_id,alarm_rule" style="whiteSpace=wrap;html=1;rounded=1;arcSize=50;align=center;verticalAlign=middle;strokeWidth=1;autosize=1;spacing=4;treeFolding=1;treeMoving=1;newEdgeStyle={&quot;edgeStyle&quot;:&quot;entityRelationEdgeStyle&quot;,&quot;startArrow&quot;:&quot;none&quot;,&quot;endArrow&quot;:&quot;none&quot;,&quot;segment&quot;:10,&quot;curved&quot;:1,&quot;sourcePerimeterSpacing&quot;:0,&quot;targetPerimeterSpacing&quot;:0};" vertex="1" parent="1">
          <mxGeometry x="605" y="1820" width="252" height="38" as="geometry" />
        </mxCell>
        <mxCell id="dKWWDcmWUPBlKHuUlRmP-138" value="" style="edgeStyle=entityRelationEdgeStyle;rounded=0;orthogonalLoop=1;jettySize=auto;html=1;startArrow=none;endArrow=none;segment=10;curved=1;sourcePerimeterSpacing=0;targetPerimeterSpacing=0;" edge="1" parent="1" source="dKWWDcmWUPBlKHuUlRmP-135" target="dKWWDcmWUPBlKHuUlRmP-137">
          <mxGeometry relative="1" as="geometry" />
        </mxCell>
        <mxCell id="dKWWDcmWUPBlKHuUlRmP-141" value="" style="edgeStyle=entityRelationEdgeStyle;rounded=0;orthogonalLoop=1;jettySize=auto;html=1;startArrow=none;endArrow=none;segment=10;curved=1;sourcePerimeterSpacing=0;targetPerimeterSpacing=0;" edge="1" parent="1" source="dKWWDcmWUPBlKHuUlRmP-135" target="dKWWDcmWUPBlKHuUlRmP-140">
          <mxGeometry relative="1" as="geometry" />
        </mxCell>
        <mxCell id="dKWWDcmWUPBlKHuUlRmP-135" value="数据来源" style="whiteSpace=wrap;html=1;rounded=1;arcSize=50;align=center;verticalAlign=middle;strokeWidth=1;autosize=1;spacing=4;treeFolding=1;treeMoving=1;newEdgeStyle={&quot;edgeStyle&quot;:&quot;entityRelationEdgeStyle&quot;,&quot;startArrow&quot;:&quot;none&quot;,&quot;endArrow&quot;:&quot;none&quot;,&quot;segment&quot;:10,&quot;curved&quot;:1,&quot;sourcePerimeterSpacing&quot;:0,&quot;targetPerimeterSpacing&quot;:0};" vertex="1" parent="1">
          <mxGeometry x="440" y="1922" width="90" height="30" as="geometry" />
        </mxCell>
        <mxCell id="dKWWDcmWUPBlKHuUlRmP-137" value="上报属性，事件数据，&lt;br&gt;上下线事件，" style="whiteSpace=wrap;html=1;rounded=1;arcSize=50;align=center;verticalAlign=middle;strokeWidth=1;autosize=1;spacing=4;treeFolding=1;treeMoving=1;newEdgeStyle={&quot;edgeStyle&quot;:&quot;entityRelationEdgeStyle&quot;,&quot;startArrow&quot;:&quot;none&quot;,&quot;endArrow&quot;:&quot;none&quot;,&quot;segment&quot;:10,&quot;curved&quot;:1,&quot;sourcePerimeterSpacing&quot;:0,&quot;targetPerimeterSpacing&quot;:0};" vertex="1" parent="1">
          <mxGeometry x="600" y="1880" width="150" height="30" as="geometry" />
        </mxCell>
        <mxCell id="dKWWDcmWUPBlKHuUlRmP-140" value="定时指令下发响应" style="whiteSpace=wrap;html=1;rounded=1;arcSize=50;align=center;verticalAlign=middle;strokeWidth=1;autosize=1;spacing=4;treeFolding=1;treeMoving=1;newEdgeStyle={&quot;edgeStyle&quot;:&quot;entityRelationEdgeStyle&quot;,&quot;startArrow&quot;:&quot;none&quot;,&quot;endArrow&quot;:&quot;none&quot;,&quot;segment&quot;:10,&quot;curved&quot;:1,&quot;sourcePerimeterSpacing&quot;:0,&quot;targetPerimeterSpacing&quot;:0};" vertex="1" parent="1">
          <mxGeometry x="600" y="1930" width="140" height="30" as="geometry" />
        </mxCell>
        <mxCell id="dKWWDcmWUPBlKHuUlRmP-146" value="" style="edgeStyle=entityRelationEdgeStyle;rounded=0;orthogonalLoop=1;jettySize=auto;html=1;startArrow=none;endArrow=none;segment=10;curved=1;sourcePerimeterSpacing=0;targetPerimeterSpacing=0;" edge="1" parent="1" source="dKWWDcmWUPBlKHuUlRmP-142" target="dKWWDcmWUPBlKHuUlRmP-145">
          <mxGeometry relative="1" as="geometry" />
        </mxCell>
        <mxCell id="dKWWDcmWUPBlKHuUlRmP-147" value="" style="edgeStyle=entityRelationEdgeStyle;rounded=0;orthogonalLoop=1;jettySize=auto;html=1;startArrow=none;endArrow=none;segment=10;curved=1;sourcePerimeterSpacing=0;targetPerimeterSpacing=0;" edge="1" parent="1" source="dKWWDcmWUPBlKHuUlRmP-142" target="dKWWDcmWUPBlKHuUlRmP-145">
          <mxGeometry relative="1" as="geometry" />
        </mxCell>
        <mxCell id="dKWWDcmWUPBlKHuUlRmP-149" value="" style="edgeStyle=entityRelationEdgeStyle;rounded=0;orthogonalLoop=1;jettySize=auto;html=1;startArrow=none;endArrow=none;segment=10;curved=1;sourcePerimeterSpacing=0;targetPerimeterSpacing=0;" edge="1" parent="1" source="dKWWDcmWUPBlKHuUlRmP-142" target="dKWWDcmWUPBlKHuUlRmP-148">
          <mxGeometry relative="1" as="geometry" />
        </mxCell>
        <mxCell id="dKWWDcmWUPBlKHuUlRmP-151" value="" style="edgeStyle=entityRelationEdgeStyle;rounded=0;orthogonalLoop=1;jettySize=auto;html=1;startArrow=none;endArrow=none;segment=10;curved=1;sourcePerimeterSpacing=0;targetPerimeterSpacing=0;" edge="1" parent="1" source="dKWWDcmWUPBlKHuUlRmP-142" target="dKWWDcmWUPBlKHuUlRmP-150">
          <mxGeometry relative="1" as="geometry" />
        </mxCell>
        <mxCell id="dKWWDcmWUPBlKHuUlRmP-153" value="" style="edgeStyle=entityRelationEdgeStyle;rounded=0;orthogonalLoop=1;jettySize=auto;html=1;startArrow=none;endArrow=none;segment=10;curved=1;sourcePerimeterSpacing=0;targetPerimeterSpacing=0;" edge="1" parent="1" source="dKWWDcmWUPBlKHuUlRmP-142" target="dKWWDcmWUPBlKHuUlRmP-152">
          <mxGeometry relative="1" as="geometry" />
        </mxCell>
        <mxCell id="dKWWDcmWUPBlKHuUlRmP-179" value="" style="edgeStyle=entityRelationEdgeStyle;rounded=0;orthogonalLoop=1;jettySize=auto;html=1;startArrow=none;endArrow=none;segment=10;curved=1;sourcePerimeterSpacing=0;targetPerimeterSpacing=0;" edge="1" parent="1" source="dKWWDcmWUPBlKHuUlRmP-142" target="dKWWDcmWUPBlKHuUlRmP-178">
          <mxGeometry relative="1" as="geometry" />
        </mxCell>
        <mxCell id="dKWWDcmWUPBlKHuUlRmP-181" value="" style="edgeStyle=entityRelationEdgeStyle;rounded=0;orthogonalLoop=1;jettySize=auto;html=1;startArrow=none;endArrow=none;segment=10;curved=1;sourcePerimeterSpacing=0;targetPerimeterSpacing=0;" edge="1" parent="1" source="dKWWDcmWUPBlKHuUlRmP-142" target="dKWWDcmWUPBlKHuUlRmP-180">
          <mxGeometry relative="1" as="geometry" />
        </mxCell>
        <mxCell id="dKWWDcmWUPBlKHuUlRmP-142" value="规则配置" style="whiteSpace=wrap;html=1;rounded=1;arcSize=50;align=center;verticalAlign=middle;strokeWidth=1;autosize=1;spacing=4;treeFolding=1;treeMoving=1;newEdgeStyle={&quot;edgeStyle&quot;:&quot;entityRelationEdgeStyle&quot;,&quot;startArrow&quot;:&quot;none&quot;,&quot;endArrow&quot;:&quot;none&quot;,&quot;segment&quot;:10,&quot;curved&quot;:1,&quot;sourcePerimeterSpacing&quot;:0,&quot;targetPerimeterSpacing&quot;:0};" vertex="1" parent="1">
          <mxGeometry x="435" y="2060" width="90" height="30" as="geometry" />
        </mxCell>
        <mxCell id="dKWWDcmWUPBlKHuUlRmP-158" value="" style="edgeStyle=entityRelationEdgeStyle;rounded=0;orthogonalLoop=1;jettySize=auto;html=1;startArrow=none;endArrow=none;segment=10;curved=1;sourcePerimeterSpacing=0;targetPerimeterSpacing=0;" edge="1" parent="1" source="dKWWDcmWUPBlKHuUlRmP-145" target="dKWWDcmWUPBlKHuUlRmP-157">
          <mxGeometry relative="1" as="geometry" />
        </mxCell>
        <mxCell id="dKWWDcmWUPBlKHuUlRmP-145" value="表达式配置" style="whiteSpace=wrap;html=1;rounded=1;arcSize=50;align=center;verticalAlign=middle;strokeWidth=1;autosize=1;spacing=4;treeFolding=1;treeMoving=1;newEdgeStyle={&quot;edgeStyle&quot;:&quot;entityRelationEdgeStyle&quot;,&quot;startArrow&quot;:&quot;none&quot;,&quot;endArrow&quot;:&quot;none&quot;,&quot;segment&quot;:10,&quot;curved&quot;:1,&quot;sourcePerimeterSpacing&quot;:0,&quot;targetPerimeterSpacing&quot;:0};" vertex="1" parent="1">
          <mxGeometry x="600" y="1980" width="100" height="30" as="geometry" />
        </mxCell>
        <mxCell id="dKWWDcmWUPBlKHuUlRmP-161" value="" style="edgeStyle=entityRelationEdgeStyle;rounded=0;orthogonalLoop=1;jettySize=auto;html=1;startArrow=none;endArrow=none;segment=10;curved=1;sourcePerimeterSpacing=0;targetPerimeterSpacing=0;" edge="1" parent="1" source="dKWWDcmWUPBlKHuUlRmP-148" target="dKWWDcmWUPBlKHuUlRmP-160">
          <mxGeometry relative="1" as="geometry" />
        </mxCell>
        <mxCell id="dKWWDcmWUPBlKHuUlRmP-148" value="时间防抖配置" style="whiteSpace=wrap;html=1;rounded=1;arcSize=50;align=center;verticalAlign=middle;strokeWidth=1;autosize=1;spacing=4;treeFolding=1;treeMoving=1;newEdgeStyle={&quot;edgeStyle&quot;:&quot;entityRelationEdgeStyle&quot;,&quot;startArrow&quot;:&quot;none&quot;,&quot;endArrow&quot;:&quot;none&quot;,&quot;segment&quot;:10,&quot;curved&quot;:1,&quot;sourcePerimeterSpacing&quot;:0,&quot;targetPerimeterSpacing&quot;:0};" vertex="1" parent="1">
          <mxGeometry x="600" y="2030" width="120" height="30" as="geometry" />
        </mxCell>
        <mxCell id="dKWWDcmWUPBlKHuUlRmP-163" value="" style="edgeStyle=entityRelationEdgeStyle;rounded=0;orthogonalLoop=1;jettySize=auto;html=1;startArrow=none;endArrow=none;segment=10;curved=1;sourcePerimeterSpacing=0;targetPerimeterSpacing=0;" edge="1" parent="1" source="dKWWDcmWUPBlKHuUlRmP-150" target="dKWWDcmWUPBlKHuUlRmP-162">
          <mxGeometry relative="1" as="geometry" />
        </mxCell>
        <mxCell id="dKWWDcmWUPBlKHuUlRmP-150" value="次数阈值配置" style="whiteSpace=wrap;html=1;rounded=1;arcSize=50;align=center;verticalAlign=middle;strokeWidth=1;autosize=1;spacing=4;treeFolding=1;treeMoving=1;newEdgeStyle={&quot;edgeStyle&quot;:&quot;entityRelationEdgeStyle&quot;,&quot;startArrow&quot;:&quot;none&quot;,&quot;endArrow&quot;:&quot;none&quot;,&quot;segment&quot;:10,&quot;curved&quot;:1,&quot;sourcePerimeterSpacing&quot;:0,&quot;targetPerimeterSpacing&quot;:0};" vertex="1" parent="1">
          <mxGeometry x="600" y="2080" width="120" height="30" as="geometry" />
        </mxCell>
        <mxCell id="dKWWDcmWUPBlKHuUlRmP-165" value="" style="edgeStyle=entityRelationEdgeStyle;rounded=0;orthogonalLoop=1;jettySize=auto;html=1;startArrow=none;endArrow=none;segment=10;curved=1;sourcePerimeterSpacing=0;targetPerimeterSpacing=0;" edge="1" parent="1" source="dKWWDcmWUPBlKHuUlRmP-152" target="dKWWDcmWUPBlKHuUlRmP-164">
          <mxGeometry relative="1" as="geometry" />
        </mxCell>
        <mxCell id="dKWWDcmWUPBlKHuUlRmP-152" value="触发频率配置" style="whiteSpace=wrap;html=1;rounded=1;arcSize=50;align=center;verticalAlign=middle;strokeWidth=1;autosize=1;spacing=4;treeFolding=1;treeMoving=1;newEdgeStyle={&quot;edgeStyle&quot;:&quot;entityRelationEdgeStyle&quot;,&quot;startArrow&quot;:&quot;none&quot;,&quot;endArrow&quot;:&quot;none&quot;,&quot;segment&quot;:10,&quot;curved&quot;:1,&quot;sourcePerimeterSpacing&quot;:0,&quot;targetPerimeterSpacing&quot;:0};" vertex="1" parent="1">
          <mxGeometry x="600" y="2130" width="120" height="30" as="geometry" />
        </mxCell>
        <mxCell id="dKWWDcmWUPBlKHuUlRmP-157" value="用于标记数据触发&lt;br&gt;结果(触发，恢复)" style="whiteSpace=wrap;html=1;rounded=1;arcSize=50;align=center;verticalAlign=middle;strokeWidth=1;autosize=1;spacing=4;treeFolding=1;treeMoving=1;newEdgeStyle={&quot;edgeStyle&quot;:&quot;entityRelationEdgeStyle&quot;,&quot;startArrow&quot;:&quot;none&quot;,&quot;endArrow&quot;:&quot;none&quot;,&quot;segment&quot;:10,&quot;curved&quot;:1,&quot;sourcePerimeterSpacing&quot;:0,&quot;targetPerimeterSpacing&quot;:0};" vertex="1" parent="1">
          <mxGeometry x="760" y="1980" width="120" height="30" as="geometry" />
        </mxCell>
        <mxCell id="dKWWDcmWUPBlKHuUlRmP-160" value="时间范围内触发处理&lt;br&gt;，防止网络抖动" style="whiteSpace=wrap;html=1;rounded=1;arcSize=50;align=center;verticalAlign=middle;strokeWidth=1;autosize=1;spacing=4;treeFolding=1;treeMoving=1;newEdgeStyle={&quot;edgeStyle&quot;:&quot;entityRelationEdgeStyle&quot;,&quot;startArrow&quot;:&quot;none&quot;,&quot;endArrow&quot;:&quot;none&quot;,&quot;segment&quot;:10,&quot;curved&quot;:1,&quot;sourcePerimeterSpacing&quot;:0,&quot;targetPerimeterSpacing&quot;:0};" vertex="1" parent="1">
          <mxGeometry x="765" y="2030" width="125" height="30" as="geometry" />
        </mxCell>
        <mxCell id="dKWWDcmWUPBlKHuUlRmP-162" value="对于连续数据场景，当连续多少次&lt;br&gt;存在阈值，或者是平均值问题" style="whiteSpace=wrap;html=1;rounded=1;arcSize=50;align=center;verticalAlign=middle;strokeWidth=1;autosize=1;spacing=4;treeFolding=1;treeMoving=1;newEdgeStyle={&quot;edgeStyle&quot;:&quot;entityRelationEdgeStyle&quot;,&quot;startArrow&quot;:&quot;none&quot;,&quot;endArrow&quot;:&quot;none&quot;,&quot;segment&quot;:10,&quot;curved&quot;:1,&quot;sourcePerimeterSpacing&quot;:0,&quot;targetPerimeterSpacing&quot;:0};" vertex="1" parent="1">
          <mxGeometry x="760" y="2080" width="191.5" height="30" as="geometry" />
        </mxCell>
        <mxCell id="dKWWDcmWUPBlKHuUlRmP-164" value="存在场景，用于只需要&lt;br&gt;一天内一次通知" style="whiteSpace=wrap;html=1;rounded=1;arcSize=50;align=center;verticalAlign=middle;strokeWidth=1;autosize=1;spacing=4;treeFolding=1;treeMoving=1;newEdgeStyle={&quot;edgeStyle&quot;:&quot;entityRelationEdgeStyle&quot;,&quot;startArrow&quot;:&quot;none&quot;,&quot;endArrow&quot;:&quot;none&quot;,&quot;segment&quot;:10,&quot;curved&quot;:1,&quot;sourcePerimeterSpacing&quot;:0,&quot;targetPerimeterSpacing&quot;:0};" vertex="1" parent="1">
          <mxGeometry x="760" y="2130" width="130" height="30" as="geometry" />
        </mxCell>
        <mxCell id="dKWWDcmWUPBlKHuUlRmP-172" value="" style="edgeStyle=entityRelationEdgeStyle;rounded=0;orthogonalLoop=1;jettySize=auto;html=1;startArrow=none;endArrow=none;segment=10;curved=1;sourcePerimeterSpacing=0;targetPerimeterSpacing=0;" edge="1" parent="1" source="dKWWDcmWUPBlKHuUlRmP-169" target="dKWWDcmWUPBlKHuUlRmP-171">
          <mxGeometry relative="1" as="geometry" />
        </mxCell>
        <mxCell id="dKWWDcmWUPBlKHuUlRmP-174" value="" style="edgeStyle=entityRelationEdgeStyle;rounded=0;orthogonalLoop=1;jettySize=auto;html=1;startArrow=none;endArrow=none;segment=10;curved=1;sourcePerimeterSpacing=0;targetPerimeterSpacing=0;" edge="1" parent="1" source="dKWWDcmWUPBlKHuUlRmP-169" target="dKWWDcmWUPBlKHuUlRmP-173">
          <mxGeometry relative="1" as="geometry" />
        </mxCell>
        <mxCell id="dKWWDcmWUPBlKHuUlRmP-169" value="数据转换" style="whiteSpace=wrap;html=1;rounded=1;arcSize=50;align=center;verticalAlign=middle;strokeWidth=1;autosize=1;spacing=4;treeFolding=1;treeMoving=1;newEdgeStyle={&quot;edgeStyle&quot;:&quot;entityRelationEdgeStyle&quot;,&quot;startArrow&quot;:&quot;none&quot;,&quot;endArrow&quot;:&quot;none&quot;,&quot;segment&quot;:10,&quot;curved&quot;:1,&quot;sourcePerimeterSpacing&quot;:0,&quot;targetPerimeterSpacing&quot;:0};" vertex="1" parent="1">
          <mxGeometry x="435" y="2340" width="90" height="30" as="geometry" />
        </mxCell>
        <mxCell id="dKWWDcmWUPBlKHuUlRmP-177" value="" style="edgeStyle=entityRelationEdgeStyle;rounded=0;orthogonalLoop=1;jettySize=auto;html=1;startArrow=none;endArrow=none;segment=10;curved=1;sourcePerimeterSpacing=0;targetPerimeterSpacing=0;" edge="1" parent="1" source="dKWWDcmWUPBlKHuUlRmP-171" target="dKWWDcmWUPBlKHuUlRmP-176">
          <mxGeometry relative="1" as="geometry" />
        </mxCell>
        <mxCell id="dKWWDcmWUPBlKHuUlRmP-171" value="可转换属性" style="whiteSpace=wrap;html=1;rounded=1;arcSize=50;align=center;verticalAlign=middle;strokeWidth=1;autosize=1;spacing=4;treeFolding=1;treeMoving=1;newEdgeStyle={&quot;edgeStyle&quot;:&quot;entityRelationEdgeStyle&quot;,&quot;startArrow&quot;:&quot;none&quot;,&quot;endArrow&quot;:&quot;none&quot;,&quot;segment&quot;:10,&quot;curved&quot;:1,&quot;sourcePerimeterSpacing&quot;:0,&quot;targetPerimeterSpacing&quot;:0};" vertex="1" parent="1">
          <mxGeometry x="565" y="2310" width="100" height="30" as="geometry" />
        </mxCell>
        <mxCell id="dKWWDcmWUPBlKHuUlRmP-173" value="转换将key值重命名" style="whiteSpace=wrap;html=1;rounded=1;arcSize=50;align=center;verticalAlign=middle;strokeWidth=1;autosize=1;spacing=4;treeFolding=1;treeMoving=1;newEdgeStyle={&quot;edgeStyle&quot;:&quot;entityRelationEdgeStyle&quot;,&quot;startArrow&quot;:&quot;none&quot;,&quot;endArrow&quot;:&quot;none&quot;,&quot;segment&quot;:10,&quot;curved&quot;:1,&quot;sourcePerimeterSpacing&quot;:0,&quot;targetPerimeterSpacing&quot;:0};" vertex="1" parent="1">
          <mxGeometry x="565" y="2370" width="150" height="30" as="geometry" />
        </mxCell>
        <mxCell id="dKWWDcmWUPBlKHuUlRmP-176" value="alarmId,triggerId,deviceId,recordType&lt;br&gt;,productId,propery,value" style="whiteSpace=wrap;html=1;rounded=1;arcSize=50;align=center;verticalAlign=middle;strokeWidth=1;autosize=1;spacing=4;treeFolding=1;treeMoving=1;newEdgeStyle={&quot;edgeStyle&quot;:&quot;entityRelationEdgeStyle&quot;,&quot;startArrow&quot;:&quot;none&quot;,&quot;endArrow&quot;:&quot;none&quot;,&quot;segment&quot;:10,&quot;curved&quot;:1,&quot;sourcePerimeterSpacing&quot;:0,&quot;targetPerimeterSpacing&quot;:0};" vertex="1" parent="1">
          <mxGeometry x="700" y="2305" width="210" height="40" as="geometry" />
        </mxCell>
        <mxCell id="dKWWDcmWUPBlKHuUlRmP-178" value="多触发器" style="whiteSpace=wrap;html=1;rounded=1;arcSize=50;align=center;verticalAlign=middle;strokeWidth=1;autosize=1;spacing=4;treeFolding=1;treeMoving=1;newEdgeStyle={&quot;edgeStyle&quot;:&quot;entityRelationEdgeStyle&quot;,&quot;startArrow&quot;:&quot;none&quot;,&quot;endArrow&quot;:&quot;none&quot;,&quot;segment&quot;:10,&quot;curved&quot;:1,&quot;sourcePerimeterSpacing&quot;:0,&quot;targetPerimeterSpacing&quot;:0};" vertex="1" parent="1">
          <mxGeometry x="600" y="2190" width="90" height="30" as="geometry" />
        </mxCell>
        <mxCell id="dKWWDcmWUPBlKHuUlRmP-180" value="批量触发器" style="whiteSpace=wrap;html=1;rounded=1;arcSize=50;align=center;verticalAlign=middle;strokeWidth=1;autosize=1;spacing=4;treeFolding=1;treeMoving=1;newEdgeStyle={&quot;edgeStyle&quot;:&quot;entityRelationEdgeStyle&quot;,&quot;startArrow&quot;:&quot;none&quot;,&quot;endArrow&quot;:&quot;none&quot;,&quot;segment&quot;:10,&quot;curved&quot;:1,&quot;sourcePerimeterSpacing&quot;:0,&quot;targetPerimeterSpacing&quot;:0};" vertex="1" parent="1">
          <mxGeometry x="600" y="2240" width="100" height="30" as="geometry" />
        </mxCell>
        <mxCell id="dKWWDcmWUPBlKHuUlRmP-185" value="" style="edgeStyle=entityRelationEdgeStyle;rounded=0;orthogonalLoop=1;jettySize=auto;html=1;startArrow=none;endArrow=none;segment=10;curved=1;sourcePerimeterSpacing=0;targetPerimeterSpacing=0;" edge="1" parent="1" source="dKWWDcmWUPBlKHuUlRmP-182" target="dKWWDcmWUPBlKHuUlRmP-184">
          <mxGeometry relative="1" as="geometry" />
        </mxCell>
        <mxCell id="dKWWDcmWUPBlKHuUlRmP-186" value="" style="edgeStyle=entityRelationEdgeStyle;rounded=0;orthogonalLoop=1;jettySize=auto;html=1;startArrow=none;endArrow=none;segment=10;curved=1;sourcePerimeterSpacing=0;targetPerimeterSpacing=0;" edge="1" parent="1" source="dKWWDcmWUPBlKHuUlRmP-182" target="dKWWDcmWUPBlKHuUlRmP-184">
          <mxGeometry relative="1" as="geometry" />
        </mxCell>
        <mxCell id="dKWWDcmWUPBlKHuUlRmP-188" value="" style="edgeStyle=entityRelationEdgeStyle;rounded=0;orthogonalLoop=1;jettySize=auto;html=1;startArrow=none;endArrow=none;segment=10;curved=1;sourcePerimeterSpacing=0;targetPerimeterSpacing=0;" edge="1" parent="1" source="dKWWDcmWUPBlKHuUlRmP-182" target="dKWWDcmWUPBlKHuUlRmP-187">
          <mxGeometry relative="1" as="geometry" />
        </mxCell>
        <mxCell id="dKWWDcmWUPBlKHuUlRmP-182" value="执行动作" style="whiteSpace=wrap;html=1;rounded=1;arcSize=50;align=center;verticalAlign=middle;strokeWidth=1;autosize=1;spacing=4;treeFolding=1;treeMoving=1;newEdgeStyle={&quot;edgeStyle&quot;:&quot;entityRelationEdgeStyle&quot;,&quot;startArrow&quot;:&quot;none&quot;,&quot;endArrow&quot;:&quot;none&quot;,&quot;segment&quot;:10,&quot;curved&quot;:1,&quot;sourcePerimeterSpacing&quot;:0,&quot;targetPerimeterSpacing&quot;:0};" vertex="1" parent="1">
          <mxGeometry x="445" y="2480" width="90" height="30" as="geometry" />
        </mxCell>
        <mxCell id="dKWWDcmWUPBlKHuUlRmP-184" value="执行动作时机：触发，恢复" style="whiteSpace=wrap;html=1;rounded=1;arcSize=50;align=center;verticalAlign=middle;strokeWidth=1;autosize=1;spacing=4;treeFolding=1;treeMoving=1;newEdgeStyle={&quot;edgeStyle&quot;:&quot;entityRelationEdgeStyle&quot;,&quot;startArrow&quot;:&quot;none&quot;,&quot;endArrow&quot;:&quot;none&quot;,&quot;segment&quot;:10,&quot;curved&quot;:1,&quot;sourcePerimeterSpacing&quot;:0,&quot;targetPerimeterSpacing&quot;:0};" vertex="1" parent="1">
          <mxGeometry x="590" y="2430" width="190" height="30" as="geometry" />
        </mxCell>
        <mxCell id="dKWWDcmWUPBlKHuUlRmP-190" value="" style="edgeStyle=entityRelationEdgeStyle;rounded=0;orthogonalLoop=1;jettySize=auto;html=1;startArrow=none;endArrow=none;segment=10;curved=1;sourcePerimeterSpacing=0;targetPerimeterSpacing=0;" edge="1" parent="1" source="dKWWDcmWUPBlKHuUlRmP-187" target="dKWWDcmWUPBlKHuUlRmP-189">
          <mxGeometry relative="1" as="geometry" />
        </mxCell>
        <mxCell id="dKWWDcmWUPBlKHuUlRmP-191" value="" style="edgeStyle=entityRelationEdgeStyle;rounded=0;orthogonalLoop=1;jettySize=auto;html=1;startArrow=none;endArrow=none;segment=10;curved=1;sourcePerimeterSpacing=0;targetPerimeterSpacing=0;" edge="1" parent="1" source="dKWWDcmWUPBlKHuUlRmP-187" target="dKWWDcmWUPBlKHuUlRmP-189">
          <mxGeometry relative="1" as="geometry" />
        </mxCell>
        <mxCell id="dKWWDcmWUPBlKHuUlRmP-192" value="" style="edgeStyle=entityRelationEdgeStyle;rounded=0;orthogonalLoop=1;jettySize=auto;html=1;startArrow=none;endArrow=none;segment=10;curved=1;sourcePerimeterSpacing=0;targetPerimeterSpacing=0;" edge="1" parent="1" source="dKWWDcmWUPBlKHuUlRmP-187" target="dKWWDcmWUPBlKHuUlRmP-189">
          <mxGeometry relative="1" as="geometry" />
        </mxCell>
        <mxCell id="dKWWDcmWUPBlKHuUlRmP-194" value="" style="edgeStyle=entityRelationEdgeStyle;rounded=0;orthogonalLoop=1;jettySize=auto;html=1;startArrow=none;endArrow=none;segment=10;curved=1;sourcePerimeterSpacing=0;targetPerimeterSpacing=0;" edge="1" parent="1" source="dKWWDcmWUPBlKHuUlRmP-187" target="dKWWDcmWUPBlKHuUlRmP-193">
          <mxGeometry relative="1" as="geometry" />
        </mxCell>
        <mxCell id="dKWWDcmWUPBlKHuUlRmP-187" value="执行动作配置" style="whiteSpace=wrap;html=1;rounded=1;arcSize=50;align=center;verticalAlign=middle;strokeWidth=1;autosize=1;spacing=4;treeFolding=1;treeMoving=1;newEdgeStyle={&quot;edgeStyle&quot;:&quot;entityRelationEdgeStyle&quot;,&quot;startArrow&quot;:&quot;none&quot;,&quot;endArrow&quot;:&quot;none&quot;,&quot;segment&quot;:10,&quot;curved&quot;:1,&quot;sourcePerimeterSpacing&quot;:0,&quot;targetPerimeterSpacing&quot;:0};" vertex="1" parent="1">
          <mxGeometry x="575" y="2530" width="120" height="30" as="geometry" />
        </mxCell>
        <mxCell id="dKWWDcmWUPBlKHuUlRmP-196" value="" style="edgeStyle=entityRelationEdgeStyle;rounded=0;orthogonalLoop=1;jettySize=auto;html=1;startArrow=none;endArrow=none;segment=10;curved=1;sourcePerimeterSpacing=0;targetPerimeterSpacing=0;" edge="1" parent="1" source="dKWWDcmWUPBlKHuUlRmP-189" target="dKWWDcmWUPBlKHuUlRmP-195">
          <mxGeometry relative="1" as="geometry" />
        </mxCell>
        <mxCell id="dKWWDcmWUPBlKHuUlRmP-197" value="" style="edgeStyle=entityRelationEdgeStyle;rounded=0;orthogonalLoop=1;jettySize=auto;html=1;startArrow=none;endArrow=none;segment=10;curved=1;sourcePerimeterSpacing=0;targetPerimeterSpacing=0;" edge="1" parent="1" source="dKWWDcmWUPBlKHuUlRmP-189" target="dKWWDcmWUPBlKHuUlRmP-195">
          <mxGeometry relative="1" as="geometry" />
        </mxCell>
        <mxCell id="dKWWDcmWUPBlKHuUlRmP-198" value="" style="edgeStyle=entityRelationEdgeStyle;rounded=0;orthogonalLoop=1;jettySize=auto;html=1;startArrow=none;endArrow=none;segment=10;curved=1;sourcePerimeterSpacing=0;targetPerimeterSpacing=0;" edge="1" parent="1" source="dKWWDcmWUPBlKHuUlRmP-189" target="dKWWDcmWUPBlKHuUlRmP-195">
          <mxGeometry relative="1" as="geometry" />
        </mxCell>
        <mxCell id="dKWWDcmWUPBlKHuUlRmP-200" value="" style="edgeStyle=entityRelationEdgeStyle;rounded=0;orthogonalLoop=1;jettySize=auto;html=1;startArrow=none;endArrow=none;segment=10;curved=1;sourcePerimeterSpacing=0;targetPerimeterSpacing=0;" edge="1" parent="1" source="dKWWDcmWUPBlKHuUlRmP-189" target="dKWWDcmWUPBlKHuUlRmP-199">
          <mxGeometry relative="1" as="geometry" />
        </mxCell>
        <mxCell id="dKWWDcmWUPBlKHuUlRmP-202" value="" style="edgeStyle=entityRelationEdgeStyle;rounded=0;orthogonalLoop=1;jettySize=auto;html=1;startArrow=none;endArrow=none;segment=10;curved=1;sourcePerimeterSpacing=0;targetPerimeterSpacing=0;" edge="1" parent="1" source="dKWWDcmWUPBlKHuUlRmP-189" target="dKWWDcmWUPBlKHuUlRmP-201">
          <mxGeometry relative="1" as="geometry" />
        </mxCell>
        <mxCell id="dKWWDcmWUPBlKHuUlRmP-189" value="通知" style="whiteSpace=wrap;html=1;rounded=1;arcSize=50;align=center;verticalAlign=middle;strokeWidth=1;autosize=1;spacing=4;treeFolding=1;treeMoving=1;newEdgeStyle={&quot;edgeStyle&quot;:&quot;entityRelationEdgeStyle&quot;,&quot;startArrow&quot;:&quot;none&quot;,&quot;endArrow&quot;:&quot;none&quot;,&quot;segment&quot;:10,&quot;curved&quot;:1,&quot;sourcePerimeterSpacing&quot;:0,&quot;targetPerimeterSpacing&quot;:0};" vertex="1" parent="1">
          <mxGeometry x="757" y="2460" width="70" height="30" as="geometry" />
        </mxCell>
        <mxCell id="dKWWDcmWUPBlKHuUlRmP-205" value="" style="edgeStyle=entityRelationEdgeStyle;rounded=0;orthogonalLoop=1;jettySize=auto;html=1;startArrow=none;endArrow=none;segment=10;curved=1;sourcePerimeterSpacing=0;targetPerimeterSpacing=0;" edge="1" parent="1" source="dKWWDcmWUPBlKHuUlRmP-193" target="dKWWDcmWUPBlKHuUlRmP-204">
          <mxGeometry relative="1" as="geometry" />
        </mxCell>
        <mxCell id="dKWWDcmWUPBlKHuUlRmP-206" value="" style="edgeStyle=entityRelationEdgeStyle;rounded=0;orthogonalLoop=1;jettySize=auto;html=1;startArrow=none;endArrow=none;segment=10;curved=1;sourcePerimeterSpacing=0;targetPerimeterSpacing=0;" edge="1" parent="1" source="dKWWDcmWUPBlKHuUlRmP-193" target="dKWWDcmWUPBlKHuUlRmP-204">
          <mxGeometry relative="1" as="geometry" />
        </mxCell>
        <mxCell id="dKWWDcmWUPBlKHuUlRmP-208" value="" style="edgeStyle=entityRelationEdgeStyle;rounded=0;orthogonalLoop=1;jettySize=auto;html=1;startArrow=none;endArrow=none;segment=10;curved=1;sourcePerimeterSpacing=0;targetPerimeterSpacing=0;" edge="1" parent="1" source="dKWWDcmWUPBlKHuUlRmP-193" target="dKWWDcmWUPBlKHuUlRmP-207">
          <mxGeometry relative="1" as="geometry" />
        </mxCell>
        <mxCell id="dKWWDcmWUPBlKHuUlRmP-193" value="设备" style="whiteSpace=wrap;html=1;rounded=1;arcSize=50;align=center;verticalAlign=middle;strokeWidth=1;autosize=1;spacing=4;treeFolding=1;treeMoving=1;newEdgeStyle={&quot;edgeStyle&quot;:&quot;entityRelationEdgeStyle&quot;,&quot;startArrow&quot;:&quot;none&quot;,&quot;endArrow&quot;:&quot;none&quot;,&quot;segment&quot;:10,&quot;curved&quot;:1,&quot;sourcePerimeterSpacing&quot;:0,&quot;targetPerimeterSpacing&quot;:0};" vertex="1" parent="1">
          <mxGeometry x="765" y="2580" width="70" height="30" as="geometry" />
        </mxCell>
        <mxCell id="dKWWDcmWUPBlKHuUlRmP-195" value="通知类型" style="whiteSpace=wrap;html=1;rounded=1;arcSize=50;align=center;verticalAlign=middle;strokeWidth=1;autosize=1;spacing=4;treeFolding=1;treeMoving=1;newEdgeStyle={&quot;edgeStyle&quot;:&quot;entityRelationEdgeStyle&quot;,&quot;startArrow&quot;:&quot;none&quot;,&quot;endArrow&quot;:&quot;none&quot;,&quot;segment&quot;:10,&quot;curved&quot;:1,&quot;sourcePerimeterSpacing&quot;:0,&quot;targetPerimeterSpacing&quot;:0};" vertex="1" parent="1">
          <mxGeometry x="870" y="2430" width="90" height="30" as="geometry" />
        </mxCell>
        <mxCell id="dKWWDcmWUPBlKHuUlRmP-199" value="通知配置" style="whiteSpace=wrap;html=1;rounded=1;arcSize=50;align=center;verticalAlign=middle;strokeWidth=1;autosize=1;spacing=4;treeFolding=1;treeMoving=1;newEdgeStyle={&quot;edgeStyle&quot;:&quot;entityRelationEdgeStyle&quot;,&quot;startArrow&quot;:&quot;none&quot;,&quot;endArrow&quot;:&quot;none&quot;,&quot;segment&quot;:10,&quot;curved&quot;:1,&quot;sourcePerimeterSpacing&quot;:0,&quot;targetPerimeterSpacing&quot;:0};" vertex="1" parent="1">
          <mxGeometry x="870" y="2475" width="90" height="30" as="geometry" />
        </mxCell>
        <mxCell id="dKWWDcmWUPBlKHuUlRmP-201" value="通知模版配置" style="whiteSpace=wrap;html=1;rounded=1;arcSize=50;align=center;verticalAlign=middle;strokeWidth=1;autosize=1;spacing=4;treeFolding=1;treeMoving=1;newEdgeStyle={&quot;edgeStyle&quot;:&quot;entityRelationEdgeStyle&quot;,&quot;startArrow&quot;:&quot;none&quot;,&quot;endArrow&quot;:&quot;none&quot;,&quot;segment&quot;:10,&quot;curved&quot;:1,&quot;sourcePerimeterSpacing&quot;:0,&quot;targetPerimeterSpacing&quot;:0};" vertex="1" parent="1">
          <mxGeometry x="870" y="2520" width="120" height="30" as="geometry" />
        </mxCell>
        <mxCell id="dKWWDcmWUPBlKHuUlRmP-204" value="读写指令" style="whiteSpace=wrap;html=1;rounded=1;arcSize=50;align=center;verticalAlign=middle;strokeWidth=1;autosize=1;spacing=4;treeFolding=1;treeMoving=1;newEdgeStyle={&quot;edgeStyle&quot;:&quot;entityRelationEdgeStyle&quot;,&quot;startArrow&quot;:&quot;none&quot;,&quot;endArrow&quot;:&quot;none&quot;,&quot;segment&quot;:10,&quot;curved&quot;:1,&quot;sourcePerimeterSpacing&quot;:0,&quot;targetPerimeterSpacing&quot;:0};" vertex="1" parent="1">
          <mxGeometry x="870" y="2565" width="90" height="30" as="geometry" />
        </mxCell>
        <mxCell id="dKWWDcmWUPBlKHuUlRmP-207" value="功能调用" style="whiteSpace=wrap;html=1;rounded=1;arcSize=50;align=center;verticalAlign=middle;strokeWidth=1;autosize=1;spacing=4;treeFolding=1;treeMoving=1;newEdgeStyle={&quot;edgeStyle&quot;:&quot;entityRelationEdgeStyle&quot;,&quot;startArrow&quot;:&quot;none&quot;,&quot;endArrow&quot;:&quot;none&quot;,&quot;segment&quot;:10,&quot;curved&quot;:1,&quot;sourcePerimeterSpacing&quot;:0,&quot;targetPerimeterSpacing&quot;:0};" vertex="1" parent="1">
          <mxGeometry x="870" y="2610" width="90" height="30" as="geometry" />
        </mxCell>
        <mxCell id="dKWWDcmWUPBlKHuUlRmP-210" value="产品告警模版" style="whiteSpace=wrap;html=1;rounded=1;arcSize=50;align=center;verticalAlign=middle;strokeWidth=1;autosize=1;spacing=4;treeFolding=1;treeMoving=1;newEdgeStyle={&quot;edgeStyle&quot;:&quot;entityRelationEdgeStyle&quot;,&quot;startArrow&quot;:&quot;none&quot;,&quot;endArrow&quot;:&quot;none&quot;,&quot;segment&quot;:10,&quot;curved&quot;:1,&quot;sourcePerimeterSpacing&quot;:0,&quot;targetPerimeterSpacing&quot;:0};" vertex="1" parent="1">
          <mxGeometry x="605" y="1730" width="120" height="30" as="geometry" />
        </mxCell>
        <mxCell id="dKWWDcmWUPBlKHuUlRmP-212" value="设备告警" style="whiteSpace=wrap;html=1;rounded=1;arcSize=50;align=center;verticalAlign=middle;strokeWidth=1;autosize=1;spacing=4;treeFolding=1;treeMoving=1;newEdgeStyle={&quot;edgeStyle&quot;:&quot;entityRelationEdgeStyle&quot;,&quot;startArrow&quot;:&quot;none&quot;,&quot;endArrow&quot;:&quot;none&quot;,&quot;segment&quot;:10,&quot;curved&quot;:1,&quot;sourcePerimeterSpacing&quot;:0,&quot;targetPerimeterSpacing&quot;:0};" vertex="1" parent="1">
          <mxGeometry x="605" y="1777" width="90" height="30" as="geometry" />
        </mxCell>
      </root>
    </mxGraphModel>
  </diagram>
</mxfile>
